<svg width="20" height="20" viewBox="0 0 20 20" fill="none" xmlns="http://www.w3.org/2000/svg">
<path d="M1.81818 5.4546C2.82234 5.4546 3.63636 4.64057 3.63636 3.63642C3.63636 2.63226 2.82234 1.81824 1.81818 1.81824C0.814028 1.81824 0 2.63226 0 3.63642C0 4.64057 0.814028 5.4546 1.81818 5.4546Z" fill="#BFC4DA"/>
<path d="M7.53251 5.4546H17.9221C19.065 5.4546 20 4.63642 20 3.63642C20 2.63642 19.065 1.81824 17.9221 1.81824H7.53251C6.38965 1.81824 5.45459 2.63642 5.45459 3.63642C5.45459 4.63642 6.38965 5.4546 7.53251 5.4546Z" fill="#BFC4DA"/>
<path d="M1.81818 11.8182C2.82234 11.8182 3.63636 11.0042 3.63636 10.0001C3.63636 8.99591 2.82234 8.18188 1.81818 8.18188C0.814028 8.18188 0 8.99591 0 10.0001C0 11.0042 0.814028 11.8182 1.81818 11.8182Z" fill="#BFC4DA"/>
<path d="M17.9221 8.18188H7.53251C6.38965 8.18188 5.45459 9.00007 5.45459 10.0001C5.45459 11.0001 6.38965 11.8182 7.53251 11.8182H17.9221C19.065 11.8182 20 11.0001 20 10.0001C20 9.00007 19.065 8.18188 17.9221 8.18188Z" fill="#BFC4DA"/>
<path d="M1.81818 18.1819C2.82234 18.1819 3.63636 17.3679 3.63636 16.3637C3.63636 15.3596 2.82234 14.5455 1.81818 14.5455C0.814028 14.5455 0 15.3596 0 16.3637C0 17.3679 0.814028 18.1819 1.81818 18.1819Z" fill="#BFC4DA"/>
<path d="M17.9221 14.5455H7.53251C6.38965 14.5455 5.45459 15.3637 5.45459 16.3637C5.45459 17.3637 6.38965 18.1819 7.53251 18.1819H17.9221C19.065 18.1819 20 17.3637 20 16.3637C20 15.3637 19.065 14.5455 17.9221 14.5455Z" fill="#BFC4DA"/>
</svg>
