<svg width="20" height="20" viewBox="0 0 20 20" fill="none" xmlns="http://www.w3.org/2000/svg">
<path d="M1.42857 7.14286H0V17.8571C0.00357143 19.0393 0.960709 19.9964 2.14286 20H17.8571C19.0393 19.9964 19.9964 19.0393 20 17.8571V7.14286H1.42857ZM15 10H16.4286C16.8232 10 17.1429 10.3196 17.1429 10.7143C17.1429 11.1089 16.8232 11.4286 16.4286 11.4286H15C14.6053 11.4286 14.2857 11.1089 14.2857 10.7143C14.2857 10.3196 14.6053 10 15 10ZM15 14.2857H16.4286C16.8232 14.2857 17.1429 14.6053 17.1429 15C17.1429 15.3947 16.8232 15.7143 16.4286 15.7143H15C14.6053 15.7143 14.2857 15.3947 14.2857 15C14.2857 14.6053 14.6053 14.2857 15 14.2857ZM9.28571 10H10.7143C11.1089 10 11.4286 10.3196 11.4286 10.7143C11.4286 11.1089 11.1089 11.4286 10.7143 11.4286H9.28571C8.89106 11.4286 8.57143 11.1089 8.57143 10.7143C8.57143 10.3196 8.89106 10 9.28571 10ZM9.28571 14.2857H10.7143C11.1089 14.2857 11.4286 14.6053 11.4286 15C11.4286 15.3947 11.1089 15.7143 10.7143 15.7143H9.28571C8.89106 15.7143 8.57143 15.3947 8.57143 15C8.57143 14.6053 8.89106 14.2857 9.28571 14.2857ZM3.57143 10H5C5.39465 10 5.71429 10.3196 5.71429 10.7143C5.71429 11.1089 5.39465 11.4286 5 11.4286H3.57143C3.17678 11.4286 2.85714 11.1089 2.85714 10.7143C2.85714 10.3196 3.17678 10 3.57143 10ZM3.57143 14.2857H5C5.39465 14.2857 5.71429 14.6053 5.71429 15C5.71429 15.3947 5.39465 15.7143 5 15.7143H3.57143C3.17678 15.7143 2.85714 15.3947 2.85714 15C2.85714 14.6053 3.17678 14.2857 3.57143 14.2857ZM17.8571 1.42857H16.4286V0.714286C16.4286 0.319634 16.1089 0 15.7143 0C15.3196 0 15 0.319634 15 0.714286V1.42857H5V0.714286C5 0.319634 4.68037 0 4.28571 0C3.89106 0 3.57143 0.319634 3.57143 0.714286V1.42857H2.14286C0.960709 1.43214 0.00356571 2.38928 0 3.57143V5.71429H20V3.57143C19.9964 2.38928 19.0393 1.43214 17.8571 1.42857Z" fill="#BFC4DA"/>
</svg>
