<svg width="20" height="20" viewBox="0 0 20 20" fill="none" xmlns="http://www.w3.org/2000/svg">
<path d="M17.2513 3.20338C16.8235 2.77562 16.1233 2.77207 15.692 3.20338L12.9568 5.93858C13.3029 6.28557 14.1726 7.15443 14.5188 7.50054L17.254 4.76534C17.6853 4.33404 17.6817 3.6338 17.2504 3.20338H17.2513Z" fill="white"/>
<path d="M12.2673 6.62817L11.6744 7.22102C11.8386 7.3852 13.2364 8.78298 13.2364 8.78298L13.8292 8.19014L12.2673 6.62817Z" fill="white"/>
<path d="M10.9848 7.91052L0.906662 17.9887C-0.0979706 19.0297 1.42494 20.558 2.46863 19.5506L12.5459 9.4734C12.3808 9.3101 10.9839 7.91143 10.9839 7.91143L10.9848 7.91052Z" fill="white"/>
<path d="M19.5278 9.48685C18.7477 9.27297 18.0235 8.92686 17.7581 8.09706L17.5647 7.52464C17.5247 7.36134 17.2674 7.36312 17.2195 7.52464L17.026 8.09706C16.8432 8.65884 16.395 9.10789 15.8323 9.29692L15.2563 9.48684C15.0948 9.53565 15.0966 9.78415 15.2563 9.83206L15.8288 10.0255C16.3941 10.2119 16.8431 10.6601 17.026 11.2227L17.2194 11.7952C17.2638 11.9558 17.5238 11.962 17.5647 11.7952L17.7581 11.2227C18.0226 10.3921 18.7486 10.0468 19.5278 9.83294C19.6032 9.81253 19.6556 9.73975 19.652 9.66077C19.6556 9.58178 19.6068 9.51256 19.5278 9.4886L19.5278 9.48685Z" fill="white"/>
<path d="M1.93794 5.67936L2.50681 5.86928C3.07214 6.05565 3.52119 6.50384 3.70668 7.06914L3.8966 7.63802C3.92233 7.71611 3.99067 7.76049 4.07232 7.76581C4.14864 7.76581 4.22053 7.71434 4.24449 7.64157L4.43441 7.06558C4.68912 6.24643 5.43016 5.88169 6.20671 5.67933C6.3709 5.62786 6.36646 5.38291 6.20316 5.33145L5.63429 5.14153C5.06896 4.95516 4.61991 4.50697 4.43443 3.94167L4.24451 3.37279C4.21699 3.29736 4.14777 3.24854 4.06878 3.245C3.99246 3.245 3.92058 3.29647 3.89661 3.36924L3.70669 3.94523C3.51677 4.50701 3.06859 4.95606 2.50949 5.14243L1.9335 5.33235C1.77021 5.38383 1.77198 5.63143 1.93705 5.68023L1.93794 5.67936Z" fill="white"/>
<path d="M6.79765 3.23439L7.59461 3.49975C8.39511 3.76866 9.03321 4.40676 9.30211 5.20726L9.56748 6.00421C9.58967 6.07965 9.6651 6.12757 9.73965 6.12846C9.81508 6.12846 9.88786 6.07699 9.91182 6.00421L10.1772 5.20726C10.4461 4.40676 11.0842 3.76866 11.8847 3.49975L12.6781 3.23796C12.8396 3.18737 12.8467 2.93622 12.6781 2.89273L11.8847 2.62383C11.0815 2.35846 10.4434 1.72036 10.1772 0.916321L9.91182 0.119367C9.86212 -0.0394922 9.6154 -0.0412666 9.56394 0.122917L9.30214 0.916327C9.03323 1.71683 8.39513 2.35492 7.59464 2.62383L6.79768 2.8892C6.63705 2.93889 6.63258 3.18736 6.79765 3.23439Z" fill="white"/>
</svg>
