<svg width="16" height="16" viewBox="0 0 16 16" fill="none" xmlns="http://www.w3.org/2000/svg">
<path d="M11.0653 7.01423C10.8663 6.56723 10.5874 6.14648 10.2206 5.77969C9.85355 5.41318 9.43309 5.13401 8.98608 4.93506L8.43231 5.48882L8.04753 5.87331L7.64819 6.27265C7.57397 6.34658 7.51089 6.42707 7.4558 6.51128C7.98587 6.54582 8.48198 6.75962 8.86105 7.13897C9.25097 7.5286 9.45364 8.03041 9.48732 8.54107C9.50645 8.82481 9.47134 9.10911 9.38028 9.38171C9.27923 9.68485 9.11653 9.97058 8.88018 10.2143C8.87275 10.2215 8.86847 10.2303 8.86162 10.2375L8.40805 10.6905L7.77892 11.3196L7.19204 11.9067L5.66234 13.4364C5.24844 13.8503 4.69867 14.0778 4.11293 14.0778C3.52834 14.0778 2.97742 13.8498 2.56353 13.4359C2.1502 13.0225 1.92241 12.4722 1.92241 11.887C1.92241 11.3019 2.14991 10.7513 2.56381 10.3377L4.0958 8.80539C4.00817 8.53365 3.94566 8.25563 3.90712 7.97504C3.87858 7.76581 3.85917 7.55543 3.85831 7.34449C3.85546 6.95686 3.90341 6.56951 3.99304 6.19016L1.20423 8.97866C-0.401409 10.5849 -0.401409 13.1892 1.20423 14.7954C2.00748 15.5981 3.05992 16 4.11236 16C5.16537 16 6.21781 15.5984 7.02078 14.7954L9.80531 12.0109L10.2201 11.5968C10.4573 11.3593 10.6554 11.0978 10.8224 10.8232C11.0853 10.3922 11.2639 9.92519 11.3533 9.44336C11.3992 9.1956 11.4238 8.94469 11.4238 8.69322C11.4244 8.38636 11.3867 8.08008 11.3187 7.77922C11.2605 7.51804 11.176 7.262 11.0653 7.01423Z" fill="#527CFF"/>
<path d="M14.7958 1.20457C13.9925 0.40162 12.9398 0 11.8876 0C10.8346 0.000285444 9.78219 0.401619 8.97923 1.20486L6.19498 3.98908L5.78023 4.40383C5.54274 4.64132 5.34492 4.90279 5.17765 5.1771C4.91504 5.60812 4.73606 6.07511 4.64643 6.55694C4.60048 6.8047 4.57593 7.05589 4.57593 7.30708C4.57564 7.61394 4.61304 7.92022 4.68097 8.22136C4.74006 8.48226 4.82455 8.7383 4.93531 8.98635C5.13426 9.43307 5.41286 9.85353 5.77994 10.2203C6.14703 10.5871 6.56721 10.866 7.0145 11.0652L7.56798 10.5118L7.95276 10.1273L8.35182 9.72822C8.42603 9.654 8.4894 9.57351 8.5445 9.48902C8.01414 9.45448 7.51803 9.24097 7.13867 8.86133C6.74818 8.47112 6.54551 7.96817 6.51183 7.45637C6.49356 7.1735 6.52924 6.89062 6.61973 6.61859C6.72021 6.31545 6.88291 6.02943 7.11983 5.78595C7.12697 5.77882 7.13153 5.77025 7.13867 5.76283L7.59196 5.30955L8.22137 4.68043L8.80853 4.09327L10.338 2.56414C10.7519 2.15025 11.3019 1.92218 11.8876 1.92218C12.4728 1.92218 13.0232 2.15025 13.4365 2.56386C14.2911 3.41819 14.2911 4.80831 13.4371 5.66235L11.9045 7.19462C11.9924 7.46665 12.0546 7.74438 12.0932 8.02526C12.122 8.23449 12.1411 8.44486 12.142 8.65552C12.1448 9.04344 12.0972 9.4305 12.0067 9.80986L14.7958 7.02135C16.4014 5.41516 16.4014 2.81077 14.7958 1.20457Z" fill="#527CFF"/>
</svg>
