<svg width="20" height="20" viewBox="0 0 20 20" fill="none" xmlns="http://www.w3.org/2000/svg">
<path fill-rule="evenodd" clip-rule="evenodd" d="M2.94512 3.07756L5.45837 3.14088L6.27371 2.67378L7.49756 0.44607C7.65863 0.153323 7.96584 -0.00869229 8.28052 0.000360013H11.7462C12.0734 0.000360013 12.3573 0.180452 12.5035 0.44607L13.7273 2.67378L14.5426 3.14088L17.1041 3.07591C17.4429 3.06769 17.741 3.25518 17.8888 3.53314L19.6174 6.4985C19.7802 6.77809 19.7652 7.11198 19.6075 7.36936L18.2674 9.53707V10.4614L19.6066 12.6291C19.7785 12.9079 19.7702 13.2467 19.6133 13.5098L17.8713 16.4981C17.6995 16.7925 17.3765 16.9471 17.0552 16.9224L14.5419 16.8591L13.7266 17.3262L12.5027 19.5539C12.3425 19.8467 12.0345 20.0087 11.7198 19.9996H8.25405C7.92774 19.9996 7.64296 19.8195 7.49683 19.5539L6.27298 17.3262L5.45764 16.8591L2.89614 16.9241C2.55737 16.9315 2.2593 16.7448 2.11151 16.466L0.382845 13.5007C0.220109 13.2211 0.234222 12.8872 0.392809 12.6298L1.7329 10.4613V9.53697L0.392809 7.36925C0.220939 7.09049 0.230072 6.75168 0.386997 6.48853L2.12895 3.50022C2.30082 3.20583 2.6238 3.05122 2.94512 3.07589L2.94512 3.07756ZM10 5.12929C7.28421 5.12929 5.08214 7.31006 5.08214 10.0001C5.08214 12.6901 7.284 14.8708 10 14.8708C12.7161 14.8708 14.9179 12.6901 14.9179 10.0001C14.9179 7.31006 12.7161 5.12929 10 5.12929ZM7.74652 7.76815C6.5019 9.00084 6.5019 10.9992 7.74652 12.2318C8.99114 13.4645 11.0088 13.4645 12.2533 12.2318C13.4979 10.9991 13.4979 9.00073 12.2533 7.76815C11.0087 6.53545 8.99103 6.53545 7.74652 7.76815Z" fill="#BFC4DA"/>
</svg>
